~~~~~~~~~~~~~~~~~~~~~~~~~~~~~~~~~~~~~~~~~~~~~~~~~~~~~~~~~~~~~~~~~~~
Title: The Goods Live Hard Sell Hard[2009]
~~~~~~~~~~~~~~~~~~~~~~~~~~~~~~~~~~~~~~~~~~~~~~~~~~~~~~~~~~~~~~~~~~~
~~~~~~~~~~~~~~~~~~~~~~~~~~~~~~~~~~~~~~~~~~~~~~~~~~~~~~~~~~~~~~~~~~~
Release Notes

Genre: Comedy

Rated: R for sexual content, nudity, pervasive language and some 
       drug material.

Movie Information: http://www.imdb.com/title/tt1092633/

Plot: Used-car liquidator Don Ready is hired by a flailing auto 
      dealership to turn their Fourth of July sale into a majorly 
      profitable event.

Format                           : AVI
Format/Info                      : Audio Video Interleave
File size                        : 1.17 GiB
Duration                         : 1h 29mn
Overall bit rate                 : 1 879 Kbps
Movie name                       : The Goods Live Hard Sell Hard[2009]DvDRip[Eng]-Uvall
Writing application              : Lavf52.33.0

Video
Format                           : MPEG-4 Visual
Format profile                   : Simple@L3
Format settings, BVOP            : No
Format settings, QPel            : No
Format settings, GMC             : No warppoints
Format settings, Matrix          : Default (H.263)
Codec ID                         : XVID
Codec ID/Hint                    : XviD
Duration                         : 1h 29mn
Bit rate                         : 1 420 Kbps
Width                            : 704 pixels
Height                           : 400 pixels
Display aspect ratio             : 16:9
Frame rate                       : 23.976 fps
Resolution                       : 24 bits
Colorimetry                      : 4:2:0
Scan type                        : Progressive
Bits/(Pixel*Frame)               : 0.210
Stream size                      : 906 MiB (76%)
Writing library                  : XviD 1.2.1 (UTC 2008-12-04)

Audio
Format                           : AC-3
Format/Info                      : Audio Coding 3
Codec ID                         : 2000
Duration                         : 1h 29mn
Bit rate mode                    : Constant
Bit rate                         : 448 Kbps
Channel(s)                       : 6 channels
Channel positions                : Front: L C R, Surround: L R, LFE
Sampling rate                    : 48.0 KHz
Stream size                      : 286 MiB (24%)
Alignment                        : Aligned on interleaves
Interleave, duration             : 32 ms (0.77 video frame)
Interleave, preload duration     : 32 ms
~~~~~~~~~~~~~~~~~~~~~~~~~~~~~~~~~~~~~~~~~~~~~~~~~~~~~~~~~~~~~~~~~~~
~~~~~~~~~~~~~~~~~~~~~~~~~~~~~~~~~~~~~~~~~~~~~~~~~~~~~~~~~~~~~~~~~~~
Posted By: Uvall
~~~~~~~~~~~~~~~~~~~~~~~~~~~~~~~~~~~~~~~~~~~~~~~~~~~~~~~~~~~~~~~~~~~